<svg fill="none" height="150" viewBox="0 0 150 150" width="150" xmlns="http://www.w3.org/2000/svg" xmlns:xlink="http://www.w3.org/1999/xlink"><clipPath id="a"><rect height="150" rx="32" width="150"/></clipPath><g clip-path="url(#a)"><rect fill="#fff" height="150" rx="32" width="150"/><rect fill="#fff" height="150" rx="32" width="150" x="-.000092" y=".000015"/><g fill="#000"><path d="m35.6701 112.568c0 1.188.9631 2.151 2.151 2.151h19.3593c1.188 0 2.1511-.963 2.1511-2.151s-.9631-2.151-2.1511-2.151h-17.2082v-17.2083c0-1.188-.9631-2.151-2.1511-2.151-1.1879 0-2.151.963-2.151 2.151zm79.0099-74.7081c0-1.188-.963-2.1511-2.151-2.1511h-19.359c-1.188 0-2.1511.9631-2.1511 2.1511 0 1.1879.9631 2.151 2.1511 2.151h17.208v17.2083c0 1.188.963 2.151 2.151 2.151s2.151-.963 2.151-2.151zm-75.3379 76.2291 74.7079-74.7081-3.042-3.042-74.7079 74.7081z"/><path d="m22.849 124.611c0 1.188.963 2.151 2.151 2.151h19.3593c1.188 0 2.151-.963 2.151-2.151s-.963-2.151-2.151-2.151h-17.2083v-17.208c0-1.188-.963-2.151-2.151-2.151s-2.151.963-2.151 2.151zm103.913-99.611c0-1.188-.963-2.1511-2.151-2.1511h-19.359c-1.188 0-2.151.9631-2.151 2.1511s.963 2.151 2.151 2.151h17.208v17.2083c0 1.188.963 2.151 2.151 2.151s2.151-.963 2.151-2.151zm-100.241 101.132 99.611-99.611-3.042-3.042-99.611 99.611z"/><path d="m48.1214 100.117c0 1.188.963 2.151 2.151 2.151h19.3593c1.188 0 2.1511-.963 2.1511-2.151 0-1.1883-.9631-2.1514-2.1511-2.1514h-17.2083v-17.2083c0-1.188-.963-2.151-2.151-2.151s-2.151.963-2.151 2.151zm54.1076-49.8058c0-1.188-.963-2.151-2.151-2.151h-19.3594c-1.188 0-2.1511.963-2.1511 2.151s.9631 2.151 2.1511 2.151h17.2082v17.2083c0 1.188.9631 2.151 2.1512 2.151 1.188 0 2.151-.963 2.151-2.151zm-50.4356 51.3268 49.8056-49.8058-3.0421-3.042-49.8055 49.8054z"/><path d="m114.33 112.568c0 1.188-.963 2.151-2.151 2.151h-19.3594c-1.188 0-2.151-.963-2.151-2.151s.963-2.151 2.151-2.151h17.2084v-17.2083c0-1.188.963-2.151 2.151-2.151s2.151.963 2.151 2.151zm-79.0103-74.7081c0-1.188.9631-2.1511 2.1511-2.1511h19.3593c1.1879 0 2.151.9631 2.151 2.1511 0 1.1879-.9631 2.151-2.151 2.151h-17.2083v17.2083c0 1.188-.9631 2.151-2.151 2.151-1.188 0-2.1511-.963-2.1511-2.151zm75.3383 76.2291-74.7083-74.7081 3.0421-3.042 74.7082 74.7081z"/><path d="m127.151 124.611c0 1.188-.963 2.151-2.151 2.151h-19.359c-1.188 0-2.151-.963-2.151-2.151s.963-2.151 2.151-2.151h17.208v-17.208c0-1.188.963-2.151 2.151-2.151s2.151.963 2.151 2.151zm-103.913-99.611c0-1.188.9631-2.1511 2.1511-2.1511h19.3593c1.188 0 2.151.9631 2.151 2.1511s-.963 2.151-2.151 2.151h-17.2083v17.2083c0 1.188-.963 2.151-2.151 2.151s-2.1511-.963-2.1511-2.151zm100.241 101.132-99.6109-99.611 3.042-3.042 99.6109 99.611z"/><path d="m101.879 100.117c0 1.188-.963 2.151-2.1515 2.151h-19.3593c-1.188 0-2.151-.963-2.151-2.151 0-1.1883.963-2.1514 2.151-2.1514h17.2083v-17.2083c0-1.1879.963-2.151 2.151-2.151 1.1885 0 2.1515.9631 2.1515 2.151zm-54.108-49.8058c0-1.188.9631-2.151 2.1511-2.151h19.3593c1.188 0 2.151.963 2.151 2.151s-.963 2.151-2.151 2.151h-17.2083v17.2083c0 1.188-.963 2.151-2.151 2.151s-2.1511-.963-2.1511-2.151zm50.4355 51.3268-49.8054-49.8058 3.042-3.042 49.8059 49.8054z"/></g></g></svg>